<?xml version="1.0" standalone="no"?><!DOCTYPE svg PUBLIC "-//W3C//DTD SVG 1.1//EN" "http://www.w3.org/Graphics/SVG/1.1/DTD/svg11.dtd"><svg t="1498622496063" class="icon" style="" viewBox="0 0 1024 1024" version="1.1" xmlns="http://www.w3.org/2000/svg" p-id="2361" xmlns:xlink="http://www.w3.org/1999/xlink" width="200" height="200"><defs><style type="text/css"></style></defs><path d="M321.9476 220.03c-18.9256 0-34.3593-15.4563-34.3593-34.4095V82.468864c0-18.9276 15.4317-34.3593 34.3593-34.3593l0 0c18.9522 0 34.4105 15.4317 34.4105 34.3593v103.15264C356.3561 204.5737 340.8978 220.03 321.9476 220.03L321.9476 220.03z" p-id="2362" fill="#2196f3"></path><path d="M871.9933 116.8773h-68.717568v68.74316800000001c0 37.8798-30.8634 68.7933-68.7657 68.7933-37.9546 0-68.7688-30.9125-68.7688-68.7933v-68.74316800000001H390.71641600000004v68.74316800000001c0 37.8798-30.8142 68.7933-68.7688 68.7933-37.9054 0-68.7657-30.9125-68.7657-68.7933v-68.74316800000001h-68.74624c-56.9549 0-103.127 46.1947-103.127 103.1526v618.8032c0 56.9815 46.1722 103.126 103.127 103.126h687.557632c56.9815 0 103.1281-46.1445 103.1281-103.126v-618.8032C975.1214 163.073 928.9738 116.8773 871.9933 116.8773zM906.4018 838.8332c0 18.9266-15.4296 34.3593-34.4105 34.3593H184.435712c-18.9522 0-34.3593-15.4296-34.3593-34.3593V357.517312h756.3274240000001L906.4018 838.8332 906.4018 838.8332z" p-id="2363" fill="#2196f3"></path><path d="M734.506 220.03c-18.9768 0-34.4105-15.4563-34.4105-34.4095V82.468864c0-18.9276 15.4307-34.3593 34.4105-34.3593l0 0c18.9256 0 34.3603 15.4317 34.3603 34.3593v103.15264C768.8663 204.5737 753.4346 220.03 734.506 220.03L734.506 220.03z" p-id="2364" fill="#2196f3"></path><path d="M820.4042 439.1107H235.999232c-2.4044 0-4.354 1.9497-4.354 4.354v343.82950400000004c0 2.4054 1.9497 4.354 4.354 4.354h584.404992c2.4054 0 4.354-1.9487 4.354-4.354V443.46470400000004C824.7583 441.0604 822.8096 439.1107 820.4042 439.1107zM523.8487 619.7535V782.9401600000001H377.86521600000003V619.753472H523.848704zM377.8652 611.0454v-163.22560000000001h145.98348800000002v163.22560000000001H377.86521600000003zM532.5558 619.7535h146.00704000000002V782.9401600000001H532.5557759999999V619.753472zM532.5558 611.0454v-163.22560000000001h146.00704000000002v163.22560000000001H532.5557759999999zM240.3533 447.8188h128.80384v163.22560000000001H240.35328V447.81875199999996zM240.3533 619.7535h128.80384V782.9401600000001H240.35328V619.753472zM816.0502 782.9402H687.2709120000001V619.753472h128.779264V782.9401600000001zM816.0502 611.0454H687.2709120000001v-163.22560000000001h128.779264V611.045376z" p-id="2365" fill="#2196f3"></path></svg>
