<?xml version="1.0" standalone="no"?><!DOCTYPE svg PUBLIC "-//W3C//DTD SVG 1.1//EN" "http://www.w3.org/Graphics/SVG/1.1/DTD/svg11.dtd"><svg t="1498557664819" class="icon" style="" viewBox="0 0 1024 1024" version="1.1" xmlns="http://www.w3.org/2000/svg" p-id="1759" xmlns:xlink="http://www.w3.org/1999/xlink" width="200" height="200"><defs><style type="text/css"></style></defs><path d="M250.939239 337.962222c32.027437 0 59.372226-11.32493 82.027202-33.992185 22.666232-22.660092 33.997302-50.011021 33.997302-82.033341 0-32.029484-11.33107-59.378365-33.997302-82.039481-22.654976-22.666232-49.999764-33.996279-82.027202-33.996279-32.034601 0-59.374272 11.330046-82.039481 33.996279-22.654976 22.662139-33.992185 50.004881-33.992185 82.039481 0 32.027437 11.337209 59.372226 33.992185 82.033341C191.56599 326.632175 218.904639 337.962222 250.939239 337.962222L250.939239 337.962222 250.939239 337.962222zM250.939239 337.962222" fill="#555555" p-id="1760"></path><path d="M388.946406 519.0383c33.991162 33.987069 75.003228 50.985208 123.050524 50.985208 48.047296 0 89.064478-16.998139 123.056664-50.985208 33.991162-34.001395 50.984185-75.017554 50.984185-123.06178 0-48.042179-16.994046-89.053222-50.984185-123.050524-33.992185-33.996279-75.008344-50.988278-123.056664-50.988278-48.047296 0-89.060385 16.998139-123.050524 50.988278-33.991162 33.987069-50.990325 75.003228-50.990325 123.050524S354.955244 485.042022 388.946406 519.0383L388.946406 519.0383 388.946406 519.0383zM388.946406 519.0383" fill="#555555" p-id="1761"></path><path d="M773.070994 337.962222c32.023344 0 59.367109-11.32493 82.034365-33.992185 22.654976-22.660092 33.979906-50.011021 33.979906-82.033341 0-32.029484-11.32493-59.378365-33.979906-82.039481-22.667256-22.666232-50.011021-33.996279-82.034365-33.996279-32.038694 0-59.378365 11.330046-82.043574 33.996279-22.650883 22.662139-33.980929 50.004881-33.980929 82.039481 0 32.027437 11.330046 59.372226 33.980929 82.033341C713.692628 326.632175 741.0323 337.962222 773.070994 337.962222L773.070994 337.962222 773.070994 337.962222zM773.070994 337.962222" fill="#555555" p-id="1762"></path><path d="M890.900609 337.967338c-1.811252 0-8.378831 3.172249-19.708877 9.519818-11.32493 6.346545-26.066679 12.767791-44.190455 19.261693-18.124799 6.493901-36.106336 9.741875-53.931307 9.741875-20.250206 0-40.332591-3.469008-60.277852-10.426467 1.505283 11.177574 2.263553 21.150716 2.263553 29.912263 0 42.001603-12.240789 80.676437-36.722366 116.030643 48.952922 1.5104 88.985684 20.850887 120.113635 58.021461l60.736293 0c24.777313 0 45.627177-6.131651 62.541405-18.361183 16.920368-12.235672 25.382087-30.144554 25.382087-53.705156C947.111842 391.293871 928.381246 337.962222 890.900609 337.967338L890.900609 337.967338 890.900609 337.967338zM890.900609 337.967338" fill="#555555" p-id="1763"></path><path d="M823.160809 704.404078c-3.174296-17.682731-7.18361-34.075073-12.014638-49.179073-4.836145-15.109116-11.335163-29.833469-19.482727-44.185338-8.162914-14.34573-17.530258-26.591635-28.112268-36.71725-10.577916-10.124592-23.49818-18.202571-38.749536-24.25031-15.261589-6.040576-32.112372-9.061376-50.537-9.061376-3.025916 0-9.513678 3.252067-19.491936 9.745968-9.973142 6.493901-20.99415 13.756305-33.081443 21.756513-12.088316 7.998161-28.245298 15.250332-48.500621 21.74935-20.255323 6.493901-40.648792 9.745968-61.188594 9.745968-20.539802 0-40.943504-3.252067-61.183478-9.745968-20.250206-6.499018-36.413328-13.751189-48.500621-21.74935-12.088316-8.000208-23.113417-15.262612-33.081443-21.756513-9.977235-6.493901-16.467043-9.745968-19.49296-9.745968-18.433838 0-35.274388 3.0208-50.535977 9.061376-15.261589 6.04774-28.175713 14.125719-38.754652 24.25031-10.578939 10.120498-19.940145 22.372543-28.102035 36.71725-8.157797 14.351869-14.650675 29.071106-19.487843 44.185338-4.831029 15.103999-8.836249 31.497365-12.009522 49.179073-3.179412 17.676591-5.28947 34.138518-6.346545 49.406247-1.058099 15.256472-1.590218 30.895661-1.590218 46.910403 0 36.253692 11.031241 64.887846 33.086559 85.880973 22.061458 20.998243 51.373041 31.497365 87.927585 31.497365L710.066031 918.099065c36.559661 0 65.862034-10.499122 87.933725-31.497365 22.055318-20.992103 33.081443-49.626257 33.081443-85.880973 0-16.014742-0.532119-31.648814-1.573845-46.910403C828.439022 738.543619 826.322825 722.081693 823.160809 704.404078L823.160809 704.404078 823.160809 704.404078zM823.160809 704.404078" fill="#555555" p-id="1764"></path><path d="M345.660554 512.007163c-24.481577-35.354206-36.712133-74.02904-36.707017-116.030643 0-8.762571 0.757247-18.729573 2.263553-29.912263-19.940145 6.951319-40.038902 10.426467-60.277852 10.426467-17.831111 0-35.808554-3.247974-53.937446-9.741875-18.124799-6.493901-32.859385-12.914124-44.185338-19.261693-11.330046-6.346545-17.908882-9.519818-19.718087-9.519818-37.470403 0-56.205093 53.331649-56.205093 159.994947 0 23.560602 8.461719 41.469484 25.375947 53.705156 16.924461 12.230556 37.775348 18.356067 62.546521 18.356067l60.736293 0C256.679987 532.85805 296.707632 513.517563 345.660554 512.007163L345.660554 512.007163 345.660554 512.007163zM345.660554 512.007163" fill="#555555" p-id="1765"></path></svg>
