<?xml version="1.0" standalone="no"?><!DOCTYPE svg PUBLIC "-//W3C//DTD SVG 1.1//EN" "http://www.w3.org/Graphics/SVG/1.1/DTD/svg11.dtd"><svg t="1499328495211" class="icon" style="" viewBox="0 0 1024 1024" version="1.1" xmlns="http://www.w3.org/2000/svg" p-id="784" xmlns:xlink="http://www.w3.org/1999/xlink" width="200" height="200"><defs><style type="text/css"></style></defs><path d="M960.994014 171.000606c0-59.697637-48.212048-106.924241-107.684558-106.924241l-681.030741 0c-59.47251 0-107.684558 47.226604-107.684558 106.925265 0 28.977985 11.359722 54.709019 29.853935 74.118068 2.211365 2.320858 192.58418 180.322925 271.081998 253.829056l0 0c0 0 33.177634 30.948873 33.256428 80.799234l-0.162706 320.220139c0.008186 23.558555 17.903765 28.898167 17.98563 28.922726l163.313529 45.87584c19.042705 5.269004 43.541679 3.082198 43.541679-21.658276l0.024559 0.01842 0.558725-373.34815 0.001023 0c0-49.954739 33.656541-81.120552 33.656541-81.120552l0 0c79.146595-73.464175 271.02674-251.014964 273.42537-253.531274C949.638385 225.695299 960.994014 199.971427 960.994014 171.000606z" p-id="785" fill="#ffffff"></path></svg>