<?xml version="1.0" standalone="no"?><!DOCTYPE svg PUBLIC "-//W3C//DTD SVG 1.1//EN" "http://www.w3.org/Graphics/SVG/1.1/DTD/svg11.dtd"><svg t="1498557978377" class="icon" style="" viewBox="0 0 1024 1024" version="1.1" xmlns="http://www.w3.org/2000/svg" p-id="3086" xmlns:xlink="http://www.w3.org/1999/xlink" width="200" height="200"><defs><style type="text/css"></style></defs><path d="M727.04 460.8c-92.16 0-168.96 76.8-168.96 168.96 0 92.16 76.8 168.96 168.96 168.96 92.16 0 168.96-76.8 168.96-168.96 0-97.28-76.8-168.96-168.96-168.96z m0 291.84c-71.68 0-128-56.32-128-128s56.32-128 128-128 128 56.32 128 128-56.32 128-128 128z m10.24-133.12v-87.04h-40.96v128h128v-40.96h-87.04z m-215.04 35.84c-5.12-30.72 0-81.92 0-81.92-10.24 0-10.24-5.12-20.48-10.24 20.48-20.48 35.84-56.32 56.32-102.4 10.24-25.6 10.24-46.08 10.24-76.8 0-20.48 5.12-56.32 0-76.8-20.48-66.56-66.56-81.92-122.88-81.92s-102.4 20.48-122.88 81.92c-5.12 20.48 0 56.32 0 76.8 0 30.72 0 51.2 10.24 76.8 15.36 40.96 30.72 76.8 56.32 102.4-81.92 15.36-138.24 56.32-179.2 76.8-76.8 35.84-76.8 71.68-76.8 71.68v66.56h471.04s-20.48-15.36-25.6-20.48c-25.6-20.48-46.08-40.96-56.32-102.4z" fill="#555555" p-id="3087"></path></svg>
