<?xml version="1.0" standalone="no"?><!DOCTYPE svg PUBLIC "-//W3C//DTD SVG 1.1//EN" "http://www.w3.org/Graphics/SVG/1.1/DTD/svg11.dtd"><svg t="1498557640046" class="icon" style="" viewBox="0 0 1024 1024" version="1.1" xmlns="http://www.w3.org/2000/svg" p-id="1012" xmlns:xlink="http://www.w3.org/1999/xlink" width="200" height="200"><defs><style type="text/css"></style></defs><path d="M314.5728 354.7136l140.0832-106.496c38.5024-28.672 89.2928-36.0448 133.5296-18.8416l222.8224 85.1968c14.7456 5.7344 30.3104 8.192 45.056 8.192h36.864c10.6496 0 19.6608 8.192 19.6608 18.8416v273.6128c0 10.6496-9.0112 19.6608-19.6608 19.6608h-48.3328c-6.5536 0-13.9264 2.4576-18.8416 6.5536l-10.6496 9.0112c-2.4576 2.4576-6.5536 1.6384-9.0112-0.8192l-259.6864-316.2112c-6.5536-8.192-18.0224-9.8304-27.0336-4.9152l-118.784 66.3552c-23.7568 13.1072-52.4288 14.7456-77.824 4.096-13.1072-5.7344-19.6608-21.2992-13.9264-35.2256 0-3.2768 2.4576-6.5536 5.7344-9.0112z m-183.5008 279.3472h41.7792l29.4912-36.0448c26.2144-31.9488 73.728-36.0448 105.6768-9.8304 11.4688 9.8304 20.48 22.9376 24.576 37.6832 25.3952 6.5536 45.056 26.2144 52.4288 51.6096 18.0224 5.7344 34.4064 17.2032 43.4176 34.4064 15.5648 2.4576 30.3104 9.8304 41.7792 21.2992 23.7568 25.3952 28.672 63.0784 10.6496 93.3888l-4.096 7.3728v0.8192c19.6608 13.1072 45.8752 9.0112 59.8016-10.6496 6.5536-9.8304 9.0112-21.2992 6.5536-32.768v-0.8192h0.8192l3.2768 3.2768c14.7456 14.7456 38.5024 17.2032 55.7056 5.7344 13.9264-9.8304 20.48-27.0336 17.2032-43.4176v-0.8192h0.8192l3.2768 3.2768c14.7456 14.7456 37.6832 17.2032 55.7056 5.7344 13.9264-9.8304 21.2992-27.0336 18.0224-43.4176v-0.8192h0.8192l3.2768 3.2768c13.9264 13.9264 36.0448 16.384 52.4288 6.5536 20.48-12.288 27.0336-38.5024 14.7456-58.9824-1.6384-2.4576-3.2768-4.9152-4.9152-6.5536l-26.2144-31.9488-212.1728-258.048c-2.4576-2.4576-5.7344-3.2768-9.0112-1.6384l-101.5808 56.5248c-32.768 18.0224-71.2704 21.2992-106.496 8.192-19.6608-6.5536-34.4064-22.1184-41.7792-40.96-5.7344-19.6608-3.2768-40.96 7.3728-58.1632 2.4576-4.9152 0.8192-10.6496-4.096-13.1072-1.6384-0.8192-3.2768-0.8192-4.9152-0.8192H126.976c-10.6496 0-19.6608 8.192-19.6608 18.8416v272.7936c4.096 9.8304 13.1072 18.0224 23.7568 18.0224z m147.456-19.6608c-16.384-9.0112-36.0448-4.9152-47.5136 9.8304l-28.672 35.2256c-12.288 15.5648-10.6496 38.5024 4.9152 50.7904h0.8192l4.096 3.2768c11.4688 9.0112 27.8528 9.8304 40.1408 3.2768 0.8192-0.8192 1.6384 0 2.4576 0.8192v1.6384c-2.4576 13.1072 2.4576 27.0336 13.1072 35.2256l3.2768 2.4576c11.4688 9.0112 26.2144 9.8304 39.3216 4.096 0.8192-0.8192 2.4576 0 2.4576 0.8192v0.8192c-1.6384 12.288 4.096 24.576 13.9264 32.768l2.4576 1.6384c11.4688 9.0112 26.2144 10.6496 39.3216 3.2768 0.8192-0.8192 2.4576 0 2.4576 0.8192v0.8192c1.6384 9.0112 6.5536 17.2032 13.9264 22.9376l1.6384 0.8192c16.384 12.288 39.3216 9.8304 51.6096-6.5536 0.8192-1.6384 2.4576-3.2768 3.2768-4.096l4.9152-9.0112c9.0112-15.5648 6.5536-34.4064-6.5536-46.6944-10.6496-9.8304-26.2144-12.288-40.1408-6.5536-0.8192 0-0.8192 0-1.6384-0.8192v-0.8192c0.8192-19.6608-14.7456-36.864-34.4064-38.5024-4.9152 0-9.8304 0.8192-14.7456 2.4576-5.7344 0.8192-4.096-4.096-4.096-4.096 7.3728-18.8416-0.8192-39.3216-19.6608-47.5136-9.8304-4.096-22.1184-3.2768-31.1296 1.6384-4.096 0.8192-3.2768-3.2768-3.2768-3.2768 10.6496-15.5648 4.9152-37.6832-12.288-47.5136z" fill="#555555" p-id="1013"></path></svg>
